<svg width="166" height="166" viewBox="0 0 166 166" fill="none" xmlns="http://www.w3.org/2000/svg">
<path d="M70.0049 81.2383C70.5912 84.7269 68.5414 88.1207 65.1808 89.2254C58.8712 91.2994 53.3839 84.4089 56.8177 78.7237C60.2515 73.0386 68.9041 74.6885 70.0049 81.2383Z" fill="white"/>
<path d="M91.7332 81.2383C92.3195 84.7269 90.2697 88.1207 86.909 89.2254C80.5995 91.2994 75.1122 84.4089 78.546 78.7237C81.9798 73.0386 90.6324 74.6885 91.7332 81.2383Z" fill="white"/>
<path d="M113.461 81.2383C114.047 84.7269 111.997 88.1207 108.637 89.2254C102.327 91.2994 96.84 84.4089 100.274 78.7237C103.708 73.0386 112.36 74.6885 113.461 81.2383Z" fill="white"/>
<path d="M107.817 131.654C109.478 134.898 108.205 138.911 104.802 140.216C93.9384 144.381 82.0691 145.395 70.5781 143.068C56.922 140.303 44.6094 132.983 35.6562 122.307C26.7031 111.632 21.64 98.2321 21.296 84.3032C20.9519 70.3742 25.3473 56.7412 33.7625 45.6362C42.1776 34.5313 54.1138 26.6126 67.6167 23.1767C81.1197 19.7407 95.3891 20.9912 108.089 26.7233C120.788 32.4554 131.165 42.3295 137.52 54.7288C142.868 65.1623 145.102 76.8636 144.031 88.4483C143.695 92.0776 140.176 94.3891 136.603 93.6667C133.031 92.9443 130.768 89.4585 130.997 85.8209C131.541 77.1864 129.758 68.5201 125.775 60.7492C120.783 51.0107 112.633 43.2555 102.659 38.7534C92.6843 34.2514 81.4769 33.2692 70.8716 35.9679C60.2663 38.6665 50.8914 44.8859 44.2821 53.6078C37.6727 62.3298 34.2205 73.0373 34.4908 83.9773C34.761 94.9172 38.7376 105.441 45.7695 113.826C52.8014 122.211 62.4718 127.96 73.1974 130.132C81.756 131.865 90.5816 131.238 98.7473 128.379C102.187 127.175 106.155 128.41 107.817 131.654Z" fill="url(#paint0_linear_214_394)"/>
<path d="M125.833 102.464C126.486 100.699 128.983 100.699 129.636 102.464L133.435 112.73C133.64 113.285 134.078 113.723 134.633 113.928L144.899 117.727C146.664 118.38 146.664 120.877 144.899 121.53L134.633 125.329C134.078 125.534 133.64 125.972 133.435 126.527L129.636 136.793C128.983 138.558 126.486 138.558 125.833 136.793L122.035 126.527C121.829 125.972 121.392 125.534 120.837 125.329L110.571 121.53C108.805 120.877 108.805 118.38 110.571 117.727L120.837 113.928C121.392 113.723 121.829 113.285 122.035 112.73L125.833 102.464Z" fill="#F2A105"/>
<defs>
<linearGradient id="paint0_linear_214_394" x1="105.432" y1="150.038" x2="121.227" y2="81.3299" gradientUnits="userSpaceOnUse">
<stop stop-color="white"/>
<stop offset="1" stop-color="#2F80ED"/>
</linearGradient>
</defs>
</svg>
